<svg width="559" height="293" viewBox="0 0 559 293" fill="none" xmlns="http://www.w3.org/2000/svg">
<path d="M17.9555 266.296V283H14.7875L6.86751 271.96V283H3.69951V266.296H6.86751L14.7875 277.312V266.296H17.9555ZM25.9428 269.08V273.256H33.1428V275.872H25.9428V280.216H33.6708V283H22.7748V266.296H33.6708V269.08H25.9428ZM37.4304 274.72C37.4304 272.944 37.7664 271.4 38.4384 270.088C39.1264 268.776 40.1104 267.768 41.3904 267.064C42.6864 266.36 44.2144 266.008 45.9744 266.008C46.9824 266.008 47.8864 266.112 48.6864 266.32C49.4864 266.528 50.2704 266.816 51.0384 267.184V270.136H50.9424C50.3824 269.8 49.6864 269.52 48.8544 269.296C48.0384 269.056 47.1584 268.936 46.2144 268.936C42.5824 268.936 40.7664 270.848 40.7664 274.672C40.7664 276.544 41.1984 277.96 42.0624 278.92C42.9264 279.88 44.1904 280.36 45.8544 280.36C47.1984 280.36 48.1984 280.08 48.8544 279.52V277H45.6864V274.36H52.0224V281.2C50.7424 281.984 49.6384 282.528 48.7104 282.832C47.7824 283.136 46.7984 283.288 45.7584 283.288C43.9984 283.288 42.4944 282.936 41.2464 282.232C39.9984 281.528 39.0464 280.536 38.3904 279.256C37.7504 277.96 37.4304 276.448 37.4304 274.72ZM64.2209 283.288C62.5089 283.288 61.0369 282.936 59.8049 282.232C58.5729 281.528 57.6369 280.528 56.9969 279.232C56.3569 277.936 56.0369 276.408 56.0369 274.648C56.0369 272.888 56.3569 271.36 56.9969 270.064C57.6369 268.768 58.5729 267.768 59.8049 267.064C61.0369 266.36 62.5089 266.008 64.2209 266.008C65.9329 266.008 67.4049 266.36 68.6369 267.064C69.8689 267.768 70.8049 268.768 71.4449 270.064C72.0849 271.36 72.4049 272.888 72.4049 274.648C72.4049 276.408 72.0849 277.936 71.4449 279.232C70.8049 280.528 69.8689 281.528 68.6369 282.232C67.4049 282.936 65.9329 283.288 64.2209 283.288ZM64.2209 280.36C65.7249 280.36 66.9089 279.872 67.7729 278.896C68.6369 277.904 69.0689 276.488 69.0689 274.648C69.0689 272.808 68.6369 271.4 67.7729 270.424C66.9089 269.432 65.7249 268.936 64.2209 268.936C62.7169 268.936 61.5329 269.432 60.6689 270.424C59.8049 271.4 59.3729 272.808 59.3729 274.648C59.3729 276.488 59.8049 277.904 60.6689 278.896C61.5329 279.872 62.7169 280.36 64.2209 280.36ZM79.3123 269.2H74.5603V266.296H87.2323V269.2H82.4803V283H79.3123V269.2ZM90.7038 266.296H93.8718V283H90.7038V266.296ZM108.399 279.208H101.271L99.8793 283H96.7113L103.047 266.296H106.743L113.079 283H109.791L108.399 279.208ZM107.415 276.52L104.847 269.416L102.255 276.52H107.415ZM118.796 269.2H114.044V266.296H126.716V269.2H121.964V283H118.796V269.2ZM130.188 266.296H133.356V283H130.188V266.296ZM145.579 283.288C143.867 283.288 142.395 282.936 141.163 282.232C139.931 281.528 138.995 280.528 138.355 279.232C137.715 277.936 137.395 276.408 137.395 274.648C137.395 272.888 137.715 271.36 138.355 270.064C138.995 268.768 139.931 267.768 141.163 267.064C142.395 266.36 143.867 266.008 145.579 266.008C147.291 266.008 148.763 266.36 149.995 267.064C151.227 267.768 152.163 268.768 152.803 270.064C153.443 271.36 153.763 272.888 153.763 274.648C153.763 276.408 153.443 277.936 152.803 279.232C152.163 280.528 151.227 281.528 149.995 282.232C148.763 282.936 147.291 283.288 145.579 283.288ZM145.579 280.36C147.083 280.36 148.267 279.872 149.131 278.896C149.995 277.904 150.427 276.488 150.427 274.648C150.427 272.808 149.995 271.4 149.131 270.424C148.267 269.432 147.083 268.936 145.579 268.936C144.075 268.936 142.891 269.432 142.027 270.424C141.163 271.4 140.731 272.808 140.731 274.648C140.731 276.488 141.163 277.904 142.027 278.896C142.891 279.872 144.075 280.36 145.579 280.36ZM172.263 266.296V283H169.095L161.175 271.96V283H158.007V266.296H161.175L169.095 277.312V266.296H172.263ZM193.601 279.208H186.473L185.081 283H181.913L188.249 266.296H191.945L198.281 283H194.993L193.601 279.208ZM192.617 276.52L190.049 269.416L187.457 276.52H192.617ZM215.591 266.296V283H212.423L204.503 271.96V283H201.335V266.296H204.503L212.423 277.312V266.296H215.591ZM226.578 266.296C228.29 266.296 229.762 266.64 230.994 267.328C232.226 268 233.162 268.968 233.802 270.232C234.442 271.48 234.762 272.952 234.762 274.648C234.762 276.344 234.442 277.824 233.802 279.088C233.162 280.336 232.226 281.304 230.994 281.992C229.762 282.664 228.29 283 226.578 283H220.41V266.296H226.578ZM226.578 280.192C228.098 280.192 229.282 279.72 230.13 278.776C230.994 277.832 231.426 276.456 231.426 274.648C231.426 272.84 230.994 271.464 230.13 270.52C229.282 269.576 228.098 269.104 226.578 269.104H223.578V280.192H226.578ZM253.855 283.288C252.015 283.288 250.431 282.936 249.103 282.232C247.791 281.528 246.783 280.528 246.079 279.232C245.391 277.92 245.047 276.392 245.047 274.648C245.047 272.904 245.399 271.384 246.103 270.088C246.807 268.776 247.831 267.768 249.175 267.064C250.519 266.36 252.127 266.008 253.999 266.008C254.783 266.008 255.551 266.088 256.303 266.248C257.071 266.392 257.759 266.616 258.367 266.92V269.848H258.271C257.663 269.496 256.999 269.232 256.279 269.056C255.575 268.88 254.903 268.792 254.263 268.792C252.439 268.792 250.999 269.296 249.943 270.304C248.903 271.312 248.383 272.76 248.383 274.648C248.383 276.52 248.895 277.96 249.919 278.968C250.943 279.976 252.343 280.48 254.119 280.48C254.807 280.48 255.503 280.376 256.207 280.168C256.927 279.944 257.615 279.632 258.271 279.232H258.367V282.184C257.087 282.92 255.583 283.288 253.855 283.288ZM270.385 283.288C268.673 283.288 267.201 282.936 265.969 282.232C264.737 281.528 263.801 280.528 263.161 279.232C262.521 277.936 262.201 276.408 262.201 274.648C262.201 272.888 262.521 271.36 263.161 270.064C263.801 268.768 264.737 267.768 265.969 267.064C267.201 266.36 268.673 266.008 270.385 266.008C272.097 266.008 273.569 266.36 274.801 267.064C276.033 267.768 276.969 268.768 277.609 270.064C278.249 271.36 278.569 272.888 278.569 274.648C278.569 276.408 278.249 277.936 277.609 279.232C276.969 280.528 276.033 281.528 274.801 282.232C273.569 282.936 272.097 283.288 270.385 283.288ZM270.385 280.36C271.889 280.36 273.073 279.872 273.937 278.896C274.801 277.904 275.233 276.488 275.233 274.648C275.233 272.808 274.801 271.4 273.937 270.424C273.073 269.432 271.889 268.936 270.385 268.936C268.881 268.936 267.697 269.432 266.833 270.424C265.969 271.4 265.537 272.808 265.537 274.648C265.537 276.488 265.969 277.904 266.833 278.896C267.697 279.872 268.881 280.36 270.385 280.36ZM297.069 266.296V283H293.901L285.981 271.96V283H282.813V266.296H285.981L293.901 277.312V266.296H297.069ZM305.056 269.08V273.52H311.272V276.16H305.056V283H301.888V266.296H312.856V269.08H305.056ZM316.159 266.296H319.327V280.216H326.359V283H316.159V266.296ZM329.745 266.296H332.913V283H329.745V266.296ZM345.76 283.288C343.92 283.288 342.336 282.936 341.008 282.232C339.696 281.528 338.688 280.528 337.984 279.232C337.296 277.92 336.952 276.392 336.952 274.648C336.952 272.904 337.304 271.384 338.008 270.088C338.712 268.776 339.736 267.768 341.08 267.064C342.424 266.36 344.032 266.008 345.904 266.008C346.688 266.008 347.456 266.088 348.208 266.248C348.976 266.392 349.664 266.616 350.272 266.92V269.848H350.176C349.568 269.496 348.904 269.232 348.184 269.056C347.48 268.88 346.808 268.792 346.168 268.792C344.344 268.792 342.904 269.296 341.848 270.304C340.808 271.312 340.288 272.76 340.288 274.648C340.288 276.52 340.8 277.96 341.824 278.968C342.848 279.976 344.248 280.48 346.024 280.48C346.712 280.48 347.408 280.376 348.112 280.168C348.832 279.944 349.52 279.632 350.176 279.232H350.272V282.184C348.992 282.92 347.488 283.288 345.76 283.288ZM358.306 269.2H353.554V266.296H366.226V269.2H361.474V283H358.306V269.2ZM395.096 283H391.928V270.304L387.512 283H384.2L379.688 270.328V283H376.52V266.296H381.488L385.904 278.68L390.2 266.296H395.096V283ZM409.843 279.208H402.715L401.323 283H398.155L404.491 266.296H408.187L414.523 283H411.235L409.843 279.208ZM408.859 276.52L406.291 269.416L403.699 276.52H408.859ZM431.833 266.296V283H428.665L420.745 271.96V283H417.577V266.296H420.745L428.665 277.312V266.296H431.833ZM446.564 279.208H439.436L438.044 283H434.876L441.212 266.296H444.908L451.244 283H447.956L446.564 279.208ZM445.58 276.52L443.012 269.416L440.42 276.52H445.58ZM452.761 274.72C452.761 272.944 453.097 271.4 453.769 270.088C454.457 268.776 455.441 267.768 456.721 267.064C458.017 266.36 459.545 266.008 461.305 266.008C462.313 266.008 463.217 266.112 464.017 266.32C464.817 266.528 465.601 266.816 466.369 267.184V270.136H466.273C465.713 269.8 465.017 269.52 464.185 269.296C463.369 269.056 462.489 268.936 461.545 268.936C457.913 268.936 456.097 270.848 456.097 274.672C456.097 276.544 456.529 277.96 457.393 278.92C458.257 279.88 459.521 280.36 461.185 280.36C462.529 280.36 463.529 280.08 464.185 279.52V277H461.017V274.36H467.353V281.2C466.073 281.984 464.969 282.528 464.041 282.832C463.113 283.136 462.129 283.288 461.089 283.288C459.329 283.288 457.825 282.936 456.577 282.232C455.329 281.528 454.377 280.536 453.721 279.256C453.081 277.96 452.761 276.448 452.761 274.72ZM475.111 269.08V273.256H482.311V275.872H475.111V280.216H482.839V283H471.943V266.296H482.839V269.08H475.111ZM505.751 283H502.583V270.304L498.167 283H494.855L490.343 270.328V283H487.175V266.296H492.143L496.559 278.68L500.855 266.296H505.751V283ZM513.754 269.08V273.256H520.954V275.872H513.754V280.216H521.482V283H510.586V266.296H521.482V269.08H513.754ZM540.074 266.296V283H536.906L528.986 271.96V283H525.818V266.296H528.986L536.906 277.312V266.296H540.074ZM548.517 269.2H543.765V266.296H556.437V269.2H551.685V283H548.517V269.2Z" fill="#0E387A"/>
<path d="M19.007 246.56H7.28204L4.79704 253H1.71704L11.097 228.64H15.367L24.747 253H21.492L19.007 246.56ZM17.992 243.935L13.162 231.335L8.29704 243.935H17.992ZM44.9317 253.42C41.9917 253.42 39.705 252.487 38.0717 250.62C36.4617 248.73 35.6567 246.163 35.6567 242.92V228.64H38.7367V242.815C38.7367 245.195 39.2617 247.085 40.3117 248.485C41.385 249.862 42.925 250.55 44.9317 250.55C46.9383 250.55 48.4667 249.862 49.5167 248.485C50.59 247.085 51.1267 245.195 51.1267 242.815V228.64H54.2067V242.92C54.2067 246.163 53.39 248.73 51.7567 250.62C50.1467 252.487 47.8717 253.42 44.9317 253.42ZM75.7762 253.42C74.4229 253.42 73.0112 253.245 71.5412 252.895C70.0712 252.545 68.6829 252.067 67.3762 251.46V248.135C68.9162 248.975 70.3396 249.593 71.6462 249.99C72.9762 250.387 74.2829 250.585 75.5662 250.585C77.1762 250.585 78.4246 250.223 79.3112 249.5C80.1979 248.777 80.6412 247.785 80.6412 246.525C80.6412 245.662 80.3962 244.938 79.9062 244.355C79.4162 243.772 78.7979 243.305 78.0512 242.955C77.3046 242.605 76.3012 242.22 75.0412 241.8C73.5246 241.287 72.2996 240.797 71.3662 240.33C70.4562 239.863 69.6746 239.198 69.0212 238.335C68.3679 237.472 68.0412 236.352 68.0412 234.975C68.0412 232.922 68.7879 231.288 70.2812 230.075C71.7746 228.838 73.7812 228.22 76.3012 228.22C78.7512 228.22 81.0029 228.745 83.0562 229.795V233.015C80.7462 231.708 78.4946 231.055 76.3012 231.055C74.6912 231.055 73.4312 231.382 72.5212 232.035C71.6112 232.665 71.1562 233.54 71.1562 234.66C71.1562 235.43 71.3896 236.072 71.8562 236.585C72.3229 237.098 72.8946 237.518 73.5712 237.845C74.2479 238.148 75.2046 238.522 76.4412 238.965C77.9812 239.478 79.2412 239.98 80.2212 240.47C81.2012 240.96 82.0296 241.672 82.7062 242.605C83.4062 243.538 83.7562 244.74 83.7562 246.21C83.7562 247.657 83.4296 248.928 82.7762 250.025C82.1229 251.098 81.1896 251.938 79.9762 252.545C78.7629 253.128 77.3629 253.42 75.7762 253.42ZM102.189 231.72H94.8389V228.64H112.619V231.72H105.269V253H102.189V231.72ZM139.032 253L134.097 243.445H133.747H128.147V253H125.067V228.64H133.327C136.243 228.64 138.413 229.258 139.837 230.495C141.26 231.708 141.972 233.493 141.972 235.85C141.972 237.6 141.587 239.082 140.817 240.295C140.047 241.508 138.915 242.372 137.422 242.885L142.742 253H139.032ZM133.362 240.54C135.182 240.54 136.512 240.19 137.352 239.49C138.215 238.767 138.647 237.553 138.647 235.85C138.647 234.287 138.215 233.19 137.352 232.56C136.512 231.907 135.17 231.58 133.327 231.58H128.147V240.54H133.362ZM155.033 228.64H158.113V253H155.033V228.64ZM186.684 246.56H174.959L172.474 253H169.394L178.774 228.64H183.044L192.424 253H189.169L186.684 246.56ZM185.669 243.935L180.839 231.335L175.974 243.935H185.669ZM223.268 228.64V253H220.188L207.098 234.205V253H204.018V228.64H207.098L220.188 247.435V228.64H223.268ZM267.72 246.56H255.995L253.51 253H250.43L259.81 228.64H264.08L273.46 253H270.205L267.72 246.56ZM266.705 243.935L261.875 231.335L257.01 243.935H266.705ZM292.089 253.42C290.735 253.42 289.324 253.245 287.854 252.895C286.384 252.545 284.995 252.067 283.689 251.46V248.135C285.229 248.975 286.652 249.593 287.959 249.99C289.289 250.387 290.595 250.585 291.879 250.585C293.489 250.585 294.737 250.223 295.624 249.5C296.51 248.777 296.954 247.785 296.954 246.525C296.954 245.662 296.709 244.938 296.219 244.355C295.729 243.772 295.11 243.305 294.364 242.955C293.617 242.605 292.614 242.22 291.354 241.8C289.837 241.287 288.612 240.797 287.679 240.33C286.769 239.863 285.987 239.198 285.334 238.335C284.68 237.472 284.354 236.352 284.354 234.975C284.354 232.922 285.1 231.288 286.594 230.075C288.087 228.838 290.094 228.22 292.614 228.22C295.064 228.22 297.315 228.745 299.369 229.795V233.015C297.059 231.708 294.807 231.055 292.614 231.055C291.004 231.055 289.744 231.382 288.834 232.035C287.924 232.665 287.469 233.54 287.469 234.66C287.469 235.43 287.702 236.072 288.169 236.585C288.635 237.098 289.207 237.518 289.884 237.845C290.56 238.148 291.517 238.522 292.754 238.965C294.294 239.478 295.554 239.98 296.534 240.47C297.514 240.96 298.342 241.672 299.019 242.605C299.719 243.538 300.069 244.74 300.069 246.21C300.069 247.657 299.742 248.928 299.089 250.025C298.435 251.098 297.502 251.938 296.289 252.545C295.075 253.128 293.675 253.42 292.089 253.42ZM320.251 253.42C318.898 253.42 317.486 253.245 316.016 252.895C314.546 252.545 313.158 252.067 311.851 251.46V248.135C313.391 248.975 314.815 249.593 316.121 249.99C317.451 250.387 318.758 250.585 320.041 250.585C321.651 250.585 322.9 250.223 323.786 249.5C324.673 248.777 325.116 247.785 325.116 246.525C325.116 245.662 324.871 244.938 324.381 244.355C323.891 243.772 323.273 243.305 322.526 242.955C321.78 242.605 320.776 242.22 319.516 241.8C318 241.287 316.775 240.797 315.841 240.33C314.931 239.863 314.15 239.198 313.496 238.335C312.843 237.472 312.516 236.352 312.516 234.975C312.516 232.922 313.263 231.288 314.756 230.075C316.25 228.838 318.256 228.22 320.776 228.22C323.226 228.22 325.478 228.745 327.531 229.795V233.015C325.221 231.708 322.97 231.055 320.776 231.055C319.166 231.055 317.906 231.382 316.996 232.035C316.086 232.665 315.631 233.54 315.631 234.66C315.631 235.43 315.865 236.072 316.331 236.585C316.798 237.098 317.37 237.518 318.046 237.845C318.723 238.148 319.68 238.522 320.916 238.965C322.456 239.478 323.716 239.98 324.696 240.47C325.676 240.96 326.505 241.672 327.181 242.605C327.881 243.538 328.231 244.74 328.231 246.21C328.231 247.657 327.905 248.928 327.251 250.025C326.598 251.098 325.665 251.938 324.451 252.545C323.238 253.128 321.838 253.42 320.251 253.42ZM351.704 253.42C349.347 253.42 347.329 252.895 345.649 251.845C343.992 250.795 342.721 249.325 341.834 247.435C340.971 245.545 340.539 243.34 340.539 240.82C340.539 238.3 340.971 236.095 341.834 234.205C342.721 232.315 343.992 230.845 345.649 229.795C347.329 228.745 349.347 228.22 351.704 228.22C354.061 228.22 356.067 228.745 357.724 229.795C359.404 230.845 360.676 232.315 361.539 234.205C362.426 236.095 362.869 238.3 362.869 240.82C362.869 243.34 362.426 245.545 361.539 247.435C360.676 249.325 359.404 250.795 357.724 251.845C356.067 252.895 354.061 253.42 351.704 253.42ZM351.704 250.62C354.317 250.62 356.277 249.745 357.584 247.995C358.891 246.222 359.544 243.83 359.544 240.82C359.544 237.81 358.891 235.43 357.584 233.68C356.277 231.907 354.317 231.02 351.704 231.02C349.091 231.02 347.131 231.907 345.824 233.68C344.517 235.43 343.864 237.81 343.864 240.82C343.864 243.83 344.517 246.222 345.824 247.995C347.131 249.745 349.091 250.62 351.704 250.62ZM386.663 253.42C384.307 253.42 382.3 252.895 380.643 251.845C379.01 250.795 377.773 249.325 376.933 247.435C376.117 245.545 375.708 243.34 375.708 240.82C375.708 238.3 376.117 236.095 376.933 234.205C377.773 232.315 379.01 230.845 380.643 229.795C382.3 228.745 384.307 228.22 386.663 228.22C387.947 228.22 389.183 228.383 390.373 228.71C391.563 229.013 392.648 229.468 393.628 230.075V233.575H393.488C392.718 232.828 391.75 232.233 390.583 231.79C389.417 231.323 388.145 231.09 386.768 231.09C384.108 231.09 382.148 231.953 380.888 233.68C379.652 235.407 379.033 237.787 379.033 240.82C379.033 243.877 379.652 246.268 380.888 247.995C382.148 249.722 384.097 250.585 386.733 250.585C388.063 250.585 389.312 250.363 390.478 249.92C391.668 249.477 392.672 248.858 393.488 248.065H393.628V251.565C392.648 252.172 391.563 252.638 390.373 252.965C389.183 253.268 387.947 253.42 386.663 253.42ZM407.199 228.64H410.279V253H407.199V228.64ZM438.85 246.56H427.125L424.64 253H421.56L430.94 228.64H435.21L444.59 253H441.335L438.85 246.56ZM437.835 243.935L433.005 231.335L428.14 243.935H437.835ZM460.067 231.72H452.717V228.64H470.497V231.72H463.147V253H460.067V231.72ZM482.629 228.64H485.709V253H482.629V228.64ZM510.255 253.42C507.899 253.42 505.88 252.895 504.2 251.845C502.544 250.795 501.272 249.325 500.385 247.435C499.522 245.545 499.09 243.34 499.09 240.82C499.09 238.3 499.522 236.095 500.385 234.205C501.272 232.315 502.544 230.845 504.2 229.795C505.88 228.745 507.899 228.22 510.255 228.22C512.612 228.22 514.619 228.745 516.275 229.795C517.955 230.845 519.227 232.315 520.09 234.205C520.977 236.095 521.42 238.3 521.42 240.82C521.42 243.34 520.977 245.545 520.09 247.435C519.227 249.325 517.955 250.795 516.275 251.845C514.619 252.895 512.612 253.42 510.255 253.42ZM510.255 250.62C512.869 250.62 514.829 249.745 516.135 247.995C517.442 246.222 518.095 243.83 518.095 240.82C518.095 237.81 517.442 235.43 516.135 233.68C514.829 231.907 512.869 231.02 510.255 231.02C507.642 231.02 505.682 231.907 504.375 233.68C503.069 235.43 502.415 237.81 502.415 240.82C502.415 243.83 503.069 246.222 504.375 247.995C505.682 249.745 507.642 250.62 510.255 250.62ZM554.35 228.64V253H551.27L538.18 234.205V253H535.1V228.64H538.18L551.27 247.435V228.64H554.35Z" fill="#0E387A"/>
<path d="M240.965 134.156L256.833 125.375V71.7656L288.554 87.1406V70L240.965 46.7187V134.156Z" fill="#0E387A"/>
<path d="M319.821 50.3125L303.968 59.0937V112.719L272.247 97.3281V114.469L319.821 137.766V50.3125Z" fill="#0E387A"/>
<path d="M202.148 92C202.148 52.4063 231.973 19.7812 270.43 15.2187V0C223.593 4.625 187 44.0469 187 92C187 139.953 223.593 179.375 270.446 184V168.781C231.989 164.219 202.163 131.594 202.163 92H202.148Z" fill="#0E387A"/>
<path d="M356.837 92C356.837 52.4063 327.011 19.7812 288.554 15.2187V0C335.407 4.625 372 44.0469 372 92C372 139.953 335.407 179.375 288.554 184V168.781C327.011 164.219 356.837 131.594 356.837 92Z" fill="#0E387A"/>
</svg>
